<svg id="visual" viewBox="0 0 900 600" width="900" height="600" xmlns="http://www.w3.org/2000/svg" xmlns:xlink="http://www.w3.org/1999/xlink" version="1.1"><rect x="0" y="0" width="900" height="600" fill="#c92a2a"></rect><defs><linearGradient id="grad1_0" x1="33.3%" y1="0%" x2="100%" y2="100%"><stop offset="20%" stop-color="#c92a2a" stop-opacity="1"></stop><stop offset="80%" stop-color="#c92a2a" stop-opacity="1"></stop></linearGradient></defs><defs><linearGradient id="grad2_0" x1="0%" y1="0%" x2="66.7%" y2="100%"><stop offset="20%" stop-color="#c92a2a" stop-opacity="1"></stop><stop offset="80%" stop-color="#c92a2a" stop-opacity="1"></stop></linearGradient></defs><g transform="translate(900, 0)"><path d="M0 486.7C-17.7 456 -35.4 425.3 -55.9 424.3C-76.4 423.3 -99.7 452.1 -125 466.5C-150.4 481 -177.8 481.3 -185.2 447.2C-192.7 413 -180.2 344.5 -175.5 304C-170.8 263.4 -174 250.9 -193.6 252.3C-213.1 253.7 -249.1 268.9 -265.9 265.9C-282.7 262.8 -280.3 241.4 -307.8 236.2C-335.3 231 -392.7 242 -381.9 220.5C-371.1 199 -292 144.9 -310.4 128.6C-328.8 112.3 -444.7 133.8 -470.2 126C-495.6 118.1 -430.7 81 -418.4 55.1C-406.1 29.2 -446.4 14.6 -486.7 0L0 0Z" fill="#212529"></path></g><g transform="translate(0, 600)"><path d="M0 -486.7C10.7 -399.2 21.4 -311.6 41.2 -313.3C61.1 -315 90.2 -406.1 119.8 -447.2C149.5 -488.4 179.8 -479.6 176 -425C172.3 -370.4 134.6 -270.1 143.5 -248.5C152.4 -227 208.1 -284.3 215.5 -280.8C222.9 -277.4 182.1 -213.2 217.1 -217.1C252 -220.9 362.7 -292.8 370.5 -284.3C378.3 -275.8 283.2 -187.1 257.2 -148.5C231.3 -109.9 274.5 -121.5 279 -115.6C283.5 -109.6 249.4 -86 287.8 -77.1C326.3 -68.2 437.3 -73.9 482.6 -63.5C527.8 -53.1 507.3 -26.6 486.7 0L0 0Z" fill="#212529"></path></g></svg>